<?xml version="1.0" encoding="utf-8"?>
<!-- Generator: Adobe Illustrator 19.1.0, SVG Export Plug-In . SVG Version: 6.00 Build 0)  -->
<svg version="1.1" id="Layer_1" xmlns="http://www.w3.org/2000/svg" xmlns:xlink="http://www.w3.org/1999/xlink" x="0px" y="0px"
	 viewBox="0 0 792 107" style="enable-background:new 0 0 792 107;" xml:space="preserve">
<style type="text/css">
	.st0{fill-rule:evenodd;clip-rule:evenodd;fill:url(#SVGID_1_);}
	.st1{fill-rule:evenodd;clip-rule:evenodd;fill:#26B1E6;}
	.st2{fill-rule:evenodd;clip-rule:evenodd;fill:#FFFFFF;}
	.st3{fill-rule:evenodd;clip-rule:evenodd;fill:#263B82;}
	.st4{fill-rule:evenodd;clip-rule:evenodd;fill:#9B9C9C;}
</style>
<g>
	<path class="st2" d="M71.3,16h41.4c0.8,0,1.5,0.7,1.5,1.5v75.7c0,0.8-0.7,1.5-1.5,1.5H64.8C65,94,65,93.3,65,92.6
		c0-5.1-4.2-9.3-9.3-9.3c-5.1,0-9.3,4.2-9.3,9.3c0,0.7,0.1,1.3,0.2,1.9H37c-0.8,0-1.5-0.7-1.5-1.5V52.8c1.9,0.4,3.8,0.5,5.8,0.5
		c17,0,30.7-13.8,30.7-30.7C72,20.4,71.8,18.1,71.3,16L71.3,16z M77.3,79.3c-1.9-1.1-3.7-2.5-5.1-4.2L61.6,85.2
		c1.7,1.4,3,3.4,3.4,5.7L77.3,79.3L77.3,79.3z M85.6,47.3c-9.4,0-17,7.6-17,17s7.6,17,17,17c9.4,0,17-7.6,17-17S95,47.3,85.6,47.3
		L85.6,47.3z M60.1,47.3l10.1,9.5c1-2,2.3-3.7,3.9-5.2l-9.3-8.8C63.4,44.4,61.8,45.9,60.1,47.3z"/>
	<g>
		<path class="st2" d="M756.5,55.9c0,1.6-0.2,3.1-0.6,4.3c-0.4,1.3-0.9,2.4-1.6,3.4c-0.7,1-1.5,1.8-2.3,2.5
			c-0.9,0.7-1.8,1.2-2.8,1.7c-1,0.4-2,0.7-3,1c-1,0.2-1.9,0.3-2.8,0.3h-16.9c-1.3,0-2.7-0.2-4.2-0.7c-1.5-0.5-3-1.2-4.3-2.3
			c-1.3-1-2.4-2.4-3.3-4.1c-0.9-1.7-1.3-3.7-1.3-6.1V43.2c0-2.4,0.4-4.4,1.3-6.1c0.9-1.7,2-3,3.3-4.1c1.3-1,2.7-1.8,4.3-2.3
			c1.5-0.5,3-0.7,4.2-0.7h16.9c2.4,0,4.5,0.4,6.1,1.3c1.7,0.9,3.1,2,4.1,3.3c1,1.3,1.8,2.7,2.2,4.3c0.5,1.5,0.7,3,0.7,4.3V55.9
			L756.5,55.9z M747.1,43.3c0-1.3-0.3-2.2-1-2.9c-0.7-0.6-1.6-0.9-2.8-0.9h-16.8c-1.2,0-2.2,0.3-2.8,0.9c-0.7,0.6-1,1.6-1,2.8v12.7
			c0,1.2,0.3,2.2,1,2.8c0.7,0.7,1.6,1,2.8,1h16.8c1.3,0,2.2-0.3,2.9-1c0.6-0.7,0.9-1.6,0.9-2.8V43.3z"/>
		<path class="st2" d="M360.6,55.9c0,1.6-0.2,3.1-0.6,4.3c-0.4,1.3-0.9,2.4-1.6,3.4c-0.7,1-1.5,1.8-2.3,2.5
			c-0.9,0.7-1.8,1.2-2.8,1.7c-1,0.4-2,0.7-3,1c-1,0.2-1.9,0.3-2.8,0.3h-16.9c-1.3,0-2.7-0.2-4.2-0.7c-1.5-0.5-3-1.2-4.3-2.3
			c-1.3-1-2.4-2.4-3.3-4.1c-0.9-1.7-1.3-3.7-1.3-6.1V43.2c0-2.4,0.4-4.4,1.3-6.1c0.9-1.7,2-3,3.3-4.1c1.3-1,2.7-1.8,4.3-2.3
			c1.5-0.5,3-0.7,4.2-0.7h16.9c2.4,0,4.5,0.4,6.1,1.3c1.7,0.9,3,2,4.1,3.3c1,1.3,1.8,2.7,2.2,4.3c0.5,1.5,0.7,3,0.7,4.3V55.9
			L360.6,55.9z M351.2,43.3c0-1.3-0.3-2.2-1-2.9c-0.7-0.6-1.6-0.9-2.8-0.9h-16.8c-1.2,0-2.2,0.3-2.8,0.9c-0.7,0.6-1,1.6-1,2.8v12.7
			c0,1.2,0.3,2.2,1,2.8c0.7,0.7,1.6,1,2.8,1h16.8c1.3,0,2.2-0.3,2.9-1c0.6-0.7,0.9-1.6,0.9-2.8V43.3z"/>
		<path class="st2" d="M698.9,12.4c0,2.3-0.2,4.3-0.7,5.8c-0.5,1.6-1.1,2.9-2,3.8c-0.8,1-1.8,1.7-2.9,2.1c-1.1,0.4-2.3,0.6-3.5,0.6
			c-1.3,0-2.4-0.2-3.3-0.7c-0.9-0.5-1.7-0.9-2.4-1.5c-0.7-0.5-1.4-1-2-1.5c-0.6-0.5-1.3-0.7-2.1-0.7c-0.7,0-1.3,0.2-1.7,0.5
			c-0.4,0.4-0.7,0.8-1,1.3c-0.2,0.5-0.4,1-0.4,1.5c-0.1,0.5-0.1,0.8-0.1,1.1h-6.4c0-2,0.2-3.8,0.7-5.4c0.5-1.5,1.1-2.8,2-3.9
			c0.8-1,1.8-1.8,2.9-2.3c1.1-0.5,2.3-0.8,3.5-0.8c1.1,0,2.1,0.2,2.9,0.7c0.8,0.5,1.6,1,2.3,1.5c0.7,0.5,1.4,1,2.1,1.5
			c0.7,0.4,1.5,0.7,2.3,0.7c0.7,0,1.3-0.2,1.7-0.5c0.4-0.4,0.7-0.8,1-1.2c0.2-0.5,0.4-0.9,0.4-1.4c0.1-0.5,0.1-0.8,0.1-1.1H698.9z"
			/>
		<path class="st2" d="M706.1,56.2c0,1.3-0.2,2.7-0.7,4.2c-0.5,1.5-1.2,2.9-2.2,4.2c-1,1.3-2.3,2.4-4,3.2c-1.6,0.9-3.6,1.3-6,1.3
			h-16.9c-1.3,0-2.7-0.2-4.2-0.7c-1.5-0.5-2.9-1.2-4.2-2.2c-1.3-1-2.4-2.3-3.2-4c-0.9-1.6-1.3-3.6-1.3-6c0-1.3,0.2-2.7,0.7-4.2
			c0.5-1.5,1.2-2.9,2.2-4.2c1-1.3,2.4-2.4,4-3.2c1.6-0.9,3.7-1.3,6-1.3h16.9v8.9h-16.9c-1.3,0-2.2,0.4-3,1.2c-0.7,0.8-1,1.7-1,2.9
			c0,1.2,0.4,2.2,1.2,2.9c0.8,0.7,1.8,1,2.9,1h16.8c1.3,0,2.3-0.4,3-1.1c0.7-0.8,1-1.7,1-2.9V43c0-1.2-0.4-2.2-1.1-2.9
			c-0.7-0.7-1.7-1.1-2.9-1.1h-20.6v-8.9h20.6c1.3,0,2.7,0.2,4.2,0.7c1.5,0.5,2.9,1.2,4.2,2.2c1.3,1,2.4,2.3,3.2,4
			c0.9,1.6,1.3,3.6,1.3,6V56.2z"/>
		<path class="st2" d="M658.2,69.1h-14.3l-0.9,2.5c0.7,0,1.5,0.1,2.4,0.3c0.9,0.2,1.7,0.5,2.5,0.9c0.8,0.5,1.4,1.1,2,2
			c0.5,0.8,0.8,1.9,0.8,3.3c0,1.4-0.3,2.5-1,3.5c-0.7,0.9-1.6,1.7-2.7,2.3c-1.1,0.6-2.3,1-3.7,1.2c-1.4,0.2-2.7,0.4-4.1,0.4
			c-1.2,0-2.2,0-3.1-0.1c-0.8-0.1-1.5-0.1-2.1-0.2c-0.6-0.1-1.1-0.2-1.5-0.3c-0.4-0.1-0.9-0.2-1.4-0.2v-6.3c1,0.5,2.1,0.8,3.3,1.2
			c1.3,0.3,2.6,0.5,3.9,0.5c1.4,0,2.5-0.1,3.4-0.4c0.9-0.3,1.4-0.8,1.4-1.4c0-0.4-0.1-0.7-0.4-0.9c-0.3-0.2-0.7-0.4-1.1-0.6
			c-0.4-0.1-0.9-0.2-1.4-0.3c-0.5,0-0.9-0.1-1.3-0.1c-0.6,0-1.1,0-1.8,0.1c-0.6,0.1-1.2,0.2-1.6,0.3l2.8-7.5h-5.5
			c-1.3,0-2.7-0.2-4.2-0.7c-1.5-0.5-3-1.2-4.3-2.3c-1.3-1-2.4-2.4-3.3-4.1c-0.9-1.7-1.3-3.7-1.3-6.1V43.2c0-0.9,0.1-1.8,0.3-2.8
			c0.2-1,0.5-2,1-2.9c0.4-1,1-1.9,1.7-2.8c0.7-0.9,1.5-1.7,2.5-2.3c1-0.7,2.1-1.2,3.4-1.6c1.3-0.4,2.7-0.6,4.3-0.6h25.4v9.4h-25.4
			c-1.2,0-2.2,0.3-2.8,0.9c-0.6,0.6-0.9,1.6-0.9,2.9v12.6c0,1.2,0.3,2.2,1,2.8c0.7,0.7,1.6,1,2.8,1h25.3V69.1z"/>
		<path class="st2" d="M612.5,56.2c0,1.3-0.2,2.7-0.7,4.2c-0.5,1.5-1.2,2.9-2.2,4.2c-1,1.3-2.3,2.4-4,3.2c-1.6,0.9-3.6,1.3-6,1.3
			h-16.9c-1.3,0-2.7-0.2-4.2-0.7c-1.5-0.5-2.9-1.2-4.2-2.2c-1.3-1-2.4-2.3-3.2-4c-0.9-1.6-1.3-3.6-1.3-6c0-1.3,0.2-2.7,0.7-4.2
			c0.5-1.5,1.2-2.9,2.2-4.2c1-1.3,2.4-2.4,4-3.2c1.6-0.9,3.7-1.3,6-1.3h16.9v8.9h-16.9c-1.3,0-2.2,0.4-3,1.2c-0.7,0.8-1,1.7-1,2.9
			c0,1.2,0.4,2.2,1.2,2.9c0.8,0.7,1.8,1,2.9,1h16.8c1.3,0,2.3-0.4,3-1.1c0.7-0.8,1-1.7,1-2.9V43c0-1.2-0.4-2.2-1.1-2.9
			c-0.7-0.7-1.7-1.1-2.9-1.1H579v-8.9h20.6c1.3,0,2.7,0.2,4.2,0.7c1.5,0.5,2.9,1.2,4.2,2.2c1.3,1,2.4,2.3,3.2,4
			c0.9,1.6,1.3,3.6,1.3,6V56.2z"/>
		<polygon class="st2" points="570.7,39.5 554.3,39.5 554.3,69.1 544.9,69.1 544.9,39.5 532.7,39.5 532.7,30.1 544.9,30.1 
			544.9,17.4 554.3,17.4 554.3,30.1 570.7,30.1 		"/>
		<path class="st2" d="M526.5,64.3c0,0.7-0.1,1.3-0.4,1.9c-0.2,0.6-0.6,1.1-1,1.5c-0.4,0.4-0.9,0.8-1.5,1c-0.6,0.2-1.2,0.4-1.8,0.4
			h-21.2c-1.2,0-2.4-0.1-3.7-0.4c-1.3-0.3-2.6-0.7-3.9-1.3c-1.3-0.6-2.5-1.3-3.7-2.2c-1.2-0.9-2.2-2-3.1-3.3
			c-0.9-1.3-1.6-2.8-2.2-4.5c-0.5-1.7-0.8-3.6-0.8-5.7V30.1h9.4v21.6c0,1.2,0.2,2.3,0.6,3.3c0.4,1,1,1.8,1.7,2.5
			c0.7,0.7,1.6,1.2,2.5,1.6c1,0.4,2,0.6,3.2,0.6h16.4V30.1h9.4V64.3z"/>
		<path class="st2" d="M475.9,55.9c0,1.6-0.2,3.1-0.6,4.3c-0.4,1.3-0.9,2.4-1.6,3.4c-0.7,1-1.5,1.8-2.3,2.5
			c-0.9,0.7-1.8,1.2-2.8,1.7c-1,0.4-1.9,0.7-2.9,1c-1,0.2-1.9,0.3-2.8,0.3h-16.9v-9.4h16.9c1.3,0,2.2-0.3,2.8-1
			c0.6-0.7,0.9-1.6,0.9-2.8V43.3c0-1.3-0.3-2.2-1-2.9c-0.6-0.6-1.6-0.9-2.8-0.9H446c-1.3,0-2.2,0.3-2.9,0.9c-0.7,0.6-1,1.6-1,2.8v38
			h-9.4v-38c0-1.6,0.2-3,0.6-4.3c0.4-1.3,0.9-2.4,1.6-3.4c0.7-1,1.5-1.8,2.4-2.5c0.9-0.7,1.8-1.2,2.8-1.7c1-0.4,2-0.7,3-1
			c1-0.2,1.9-0.3,2.8-0.3h16.9c1.6,0,3.1,0.2,4.3,0.6c1.3,0.4,2.4,0.9,3.4,1.6c1,0.7,1.8,1.5,2.5,2.3c0.7,0.9,1.2,1.8,1.7,2.8
			c0.4,1,0.7,2,1,2.9c0.2,1,0.3,1.9,0.3,2.8V55.9z"/>
		<path class="st2" d="M403.3,69.1h-9.4V43.2c0-1.2-0.3-2.2-1-2.8c-0.7-0.6-1.6-0.9-2.9-0.9h-12.2v29.6h-9.4V34.8
			c0-0.7,0.1-1.3,0.4-1.8c0.2-0.6,0.6-1.1,1-1.5s0.9-0.8,1.5-1c0.6-0.2,1.2-0.4,1.8-0.4h16.9c1.3,0,2.7,0.2,4.2,0.7
			c1.5,0.5,2.9,1.2,4.3,2.2v-2.9h12.7c0.9,0,1.8,0.1,2.8,0.3c1,0.2,2,0.5,2.9,1c1,0.4,1.9,1,2.8,1.7c0.9,0.7,1.7,1.5,2.3,2.5
			c0.7,1,1.2,2.1,1.6,3.4c0.4,1.3,0.6,2.7,0.6,4.3v25.8H415V43.2c0-1.2-0.3-2.2-0.9-2.8c-0.6-0.6-1.5-0.9-2.8-0.9h-8.4
			c0.3,1.1,0.5,2.4,0.5,3.7V69.1z"/>
		<path class="st2" d="M310.5,69.1H285c-1.3,0-2.7-0.2-4.2-0.7c-1.5-0.5-3-1.2-4.3-2.3c-1.3-1-2.4-2.4-3.3-4.1
			c-0.9-1.7-1.3-3.7-1.3-6.1V43.2c0-0.9,0.1-1.8,0.3-2.8c0.2-1,0.5-2,1-2.9c0.4-1,1-1.9,1.7-2.8c0.7-0.9,1.5-1.7,2.5-2.3
			c1-0.7,2.1-1.2,3.4-1.6c1.3-0.4,2.7-0.6,4.3-0.6h25.4v9.4H285c-1.2,0-2.2,0.3-2.8,0.9c-0.6,0.6-0.9,1.6-0.9,2.9v12.6
			c0,1.2,0.3,2.2,1,2.8c0.7,0.7,1.6,1,2.8,1h25.3V69.1z"/>
		<polygon class="st2" points="266.6,39.5 250.2,39.5 250.2,69.1 240.7,69.1 240.7,39.5 228.6,39.5 228.6,30.1 240.7,30.1 
			240.7,17.4 250.2,17.4 250.2,30.1 266.6,30.1 		"/>
		<path class="st2" d="M224.9,43c0,1.3-0.2,2.7-0.7,4.2c-0.5,1.5-1.2,2.9-2.2,4.2c-1,1.3-2.4,2.4-4,3.2c-1.6,0.9-3.7,1.3-6,1.3
			h-16.9V47H212c1.3,0,2.2-0.4,3-1.2c0.7-0.8,1-1.7,1-2.9c0-1.2-0.4-2.2-1.2-2.9c-0.8-0.7-1.7-1-2.8-1h-16.9c-1.3,0-2.3,0.4-3,1.2
			c-0.7,0.8-1,1.7-1,2.9v13.1c0,1.3,0.4,2.2,1.2,2.9c0.8,0.7,1.7,1,2.9,1H212v8.9h-16.9c-1.3,0-2.7-0.2-4.2-0.7
			c-1.5-0.5-2.9-1.2-4.2-2.2c-1.3-1-2.4-2.3-3.2-4c-0.9-1.6-1.3-3.6-1.3-6V43c0-1.3,0.2-2.7,0.7-4.2c0.5-1.5,1.2-2.9,2.2-4.2
			c1-1.3,2.3-2.4,4-3.2c1.6-0.9,3.6-1.3,6-1.3H212c1.3,0,2.7,0.2,4.2,0.7c1.5,0.5,2.9,1.2,4.2,2.2c1.3,1,2.4,2.3,3.2,4
			C224.4,38.7,224.9,40.6,224.9,43z"/>
		<path class="st2" d="M175,55.9c0,1.6-0.2,3.1-0.6,4.3c-0.4,1.3-0.9,2.4-1.6,3.4c-0.7,1-1.5,1.8-2.3,2.5c-0.9,0.7-1.8,1.2-2.8,1.7
			c-1,0.4-1.9,0.7-2.9,1c-1,0.2-1.9,0.3-2.8,0.3h-16.9v-9.4h16.9c1.3,0,2.2-0.3,2.8-1c0.6-0.7,0.9-1.6,0.9-2.8V43.3
			c0-1.3-0.3-2.2-1-2.9c-0.6-0.6-1.6-0.9-2.8-0.9H145c-1.3,0-2.2,0.3-2.9,0.9c-0.7,0.6-1,1.6-1,2.8v38h-9.4v-38c0-1.6,0.2-3,0.6-4.3
			c0.4-1.3,0.9-2.4,1.6-3.4c0.7-1,1.5-1.8,2.4-2.5c0.9-0.7,1.8-1.2,2.8-1.7c1-0.4,2-0.7,3-1c1-0.2,1.9-0.3,2.8-0.3h16.9
			c1.6,0,3,0.2,4.3,0.6c1.3,0.4,2.4,0.9,3.4,1.6c1,0.7,1.8,1.5,2.5,2.3c0.7,0.9,1.2,1.8,1.7,2.8c0.4,1,0.7,2,1,2.9
			c0.2,1,0.3,1.9,0.3,2.8V55.9z"/>
	</g>
</g>
</svg>
